PathFileType	4	(X/Y/Z)	s09c0301.trc
DataRate	CameraRate	NumFrames	NumMarkers	Units	OrigDataRate	OrigDataStartFrame	OrigNumFrames
200	200	4	50	mm	200	750	2000
Frame#	Time	racr			lacr			c7			jug			rlel			rdr			llel			ldr			s2			lic			ric			lasi			rasi			rpsi			lpsi			rgt			lgt			rth1			rth2			rth3			rth4			rlfc			rmfc			rsh1			rsh2			rsh3			rsh4			rlmal			rmmal			rcal			rtoe			rmt5			lth1			lth2			lth4			lth3			llfc			lmfc			llmal			lmmal			lcal			lmt5			lsh1			lsh2			lsh3			lsh4			ltoe			SBIKE			LBIKE			RBIKE			
		X1	Y1	Z1	X2	Y2	Z2	X3	Y3	Z3	X4	Y4	Z4	X5	Y5	Z5	X6	Y6	Z6	X7	Y7	Z7	X8	Y8	Z8	X9	Y9	Z9	X10	Y10	Z10	X11	Y11	Z11	X12	Y12	Z12	X13	Y13	Z13	X14	Y14	Z14	X15	Y15	Z15	X16	Y16	Z16	X17	Y17	Z17	X18	Y18	Z18	X19	Y19	Z19	X20	Y20	Z20	X21	Y21	Z21	X22	Y22	Z22	X23	Y23	Z23	X24	Y24	Z24	X25	Y25	Z25	X26	Y26	Z26	X27	Y27	Z27	X28	Y28	Z28	X29	Y29	Z29	X30	Y30	Z30	X31	Y31	Z31	X32	Y32	Z32	X33	Y33	Z33	X34	Y34	Z34	X35	Y35	Z35	X36	Y36	Z36	X37	Y37	Z37	X38	Y38	Z38	X39	Y39	Z39	X40	Y40	Z40	X41	Y41	Z41	X42	Y42	Z42	X43	Y43	Z43	X44	Y44	Z44	X45	Y45	Z45	X46	Y46	Z46	X47	Y47	Z47	X48	Y48	Z48	X49	Y49	Z49	X50	Y50	Z50	
750	3.7500	713.368293	1359.184799	-97.931177	739.685103	1326.202406	-447.363968	717.755220	1398.992679	-272.391722	717.220364	1263.834069	-267.334003	639.335527	1110.097653	-28.825848	725.162814	870.560855	-59.819299	598.081064	1087.984773	-523.844790	715.528148	883.200351	-444.760170	244.910152	1180.178353	-256.143985	382.712878	1163.322889	-406.017579	398.126241	1143.588434	-118.317977	411.676118	1101.884898	-382.552757	422.775325	1082.860096	-146.834886	283.358498	1201.868967	-194.179281	273.587285	1218.088823	-304.678855	329.033073	1002.328491	-82.693818	336.258049	1052.870326	-456.524823	353.448458	876.153359	-89.501476	388.056450	795.290680	-92.438122	371.331139	708.224562	-98.228028	419.098456	798.078185	-112.280183	373.968150	613.431258	-122.412593	355.966552	589.531784	-219.941057	322.969383	526.527353	-87.681617	327.060897	436.945140	-93.758876	286.605873	359.439485	-89.194411	353.479047	432.507169	-122.913591	258.223055	262.506952	-84.431199	266.199080	264.918422	-160.101472	181.604155	267.590861	-117.365896	394.799094	111.319559	-129.370376	319.855533	143.718215	-62.634286	437.166815	959.239583	-457.429929	514.706193	924.230716	-449.850713	536.585709	949.790448	-434.066455	566.972565	850.431684	-450.960234	605.215598	762.447499	-431.919445	613.937745	747.402283	-331.169966	271.750157	606.732624	-415.519330	294.828085	608.820275	-343.343271	192.067340	625.404117	-374.856481	301.978385	489.760640	-433.343758	516.152220	719.420049	-445.675806	448.564176	666.521556	-429.879093	360.690163	653.649836	-424.837680	462.281816	645.248268	-400.336618	384.594720	450.595840	-362.060930	-64.427515	852.928822	-240.330646	21.251064	84.054689	-442.123849	21.234180	83.977624	-43.892031	
751	3.7550	715.131987	1358.963266	-100.232359	736.401643	1328.857926	-450.578264	716.994091	1400.450152	-274.161932	716.882388	1265.351744	-270.391637	641.561721	1110.229313	-29.471483	725.325063	870.360658	-59.932756	595.481054	1088.104489	-523.466107	716.417959	884.234630	-445.193383	246.125353	1179.586657	-254.066602	380.332703	1165.477702	-404.368886	400.484796	1143.224447	-117.629050	410.175583	1103.822100	-382.690846	424.528064	1082.895939	-146.855954	286.246631	1201.052325	-192.652470	274.778197	1217.355930	-303.261034	331.189963	1002.432018	-81.927340	334.839685	1055.505066	-454.844155	354.462194	876.108316	-89.331818	388.566840	794.987163	-92.771532	371.181023	708.077956	-98.227636	419.713633	797.838420	-112.655816	372.343750	613.079428	-121.831028	353.561782	589.698151	-219.553324	320.553485	526.290542	-87.227976	323.132965	436.633045	-93.642231	281.370111	359.978119	-89.053820	349.378904	431.940971	-122.845795	251.446009	263.461357	-84.319177	259.572583	265.459396	-160.092336	175.447634	269.629611	-117.030702	385.093637	109.383363	-129.194691	310.681193	143.467054	-62.627704	437.555968	962.863116	-456.217897	515.540709	928.925560	-448.459603	537.983033	954.719182	-431.686783	568.906416	855.918704	-449.597257	609.209435	768.773322	-430.501121	618.095616	753.162315	-329.777712	278.393677	606.524700	-415.226552	301.306753	608.720379	-342.855312	197.843312	623.326838	-374.860624	311.013275	490.335555	-433.388782	520.779846	724.213586	-444.454223	454.127935	670.020869	-429.181085	366.586736	655.455229	-424.201454	468.236723	648.670674	-399.865807	394.531423	452.948857	-362.150257	-64.391030	852.975843	-240.263213	21.259091	84.087013	-442.113747	21.237996	84.003661	-43.889477	
752	3.7600	716.833487	1358.895936	-102.633515	732.987356	1331.330909	-453.868102	716.156316	1401.685291	-276.290887	716.418422	1266.663571	-273.635688	643.623113	1110.327596	-30.309579	725.406152	870.170748	-60.059409	592.919501	1088.461968	-523.439699	715.956727	885.074156	-444.409693	246.025311	1180.193014	-250.666584	378.045184	1167.637390	-403.343901	402.917697	1142.975492	-116.920436	408.727769	1105.751962	-382.892057	426.117951	1082.998061	-146.992249	287.163909	1201.364160	-189.688231	274.202662	1218.318075	-299.713246	333.079702	1002.636780	-81.086282	333.275024	1058.158771	-453.538465	355.453342	875.984554	-89.182793	389.376270	794.739556	-93.104428	371.420368	707.991068	-97.877146	420.158365	797.527303	-113.398326	371.517658	612.519203	-121.174801	352.482985	589.206012	-219.079326	318.531427	526.235030	-86.734547	319.212398	436.634401	-93.410410	275.935551	360.822878	-88.883847	345.233023	431.415188	-122.759245	244.029637	264.741548	-84.159773	252.252682	266.574544	-160.047637	168.813329	272.276992	-116.856082	375.392270	108.453097	-128.947095	301.519782	143.591339	-62.415197	437.826952	966.353811	-454.877244	516.233852	933.443005	-447.054582	538.322180	959.542431	-430.188772	570.602374	861.223592	-447.953446	612.842073	774.773084	-429.088242	621.899654	758.619000	-328.076337	285.086097	605.593602	-414.891256	307.667054	608.464243	-342.475315	203.859634	620.652401	-374.746875	320.139968	490.244249	-433.486268	525.222699	728.649725	-443.165382	459.656910	672.961117	-428.362494	372.205602	656.975628	-423.716137	474.191365	651.667300	-399.253297	404.341117	454.631291	-362.192575	-64.367944	852.992246	-240.213782	21.266680	84.127573	-442.130396	21.223942	84.011058	-43.890757	
753	3.7650	718.398667	1358.566682	-104.960336	729.460995	1333.679421	-457.195742	715.039107	1403.230850	-277.068314	715.840177	1267.889040	-276.961542	645.598371	1110.505034	-31.236257	725.521385	869.957233	-60.206808	590.217899	1088.601159	-523.086879	715.282273	886.047533	-443.456206	245.656332	1180.970903	-247.030435	375.792044	1169.772526	-402.157688	405.334545	1142.900538	-115.962920	407.311347	1107.544855	-383.208991	427.549595	1083.056781	-147.046645	288.413335	1202.524061	-186.647461	273.977032	1219.066853	-296.554795	334.677805	1002.792022	-80.311111	331.898115	1060.746362	-452.041024	356.761692	875.871395	-88.787786	390.478798	794.516326	-93.369206	372.461415	707.830076	-97.953336	420.763677	797.254589	-114.164365	371.163852	612.101520	-120.788551	351.719858	588.868206	-218.504292	316.739349	526.421407	-86.266200	315.348166	436.778624	-93.228772	270.393562	361.937311	-88.732405	341.229715	431.071184	-122.594482	236.349355	266.418339	-84.017329	244.697521	268.048812	-160.078514	161.266076	275.477428	-117.464264	365.624714	108.338479	-128.729362	292.438548	144.490537	-61.937063	438.242841	969.834165	-453.294354	516.771448	937.737878	-445.526070	538.462784	964.123378	-428.743766	572.040798	866.180217	-446.336115	616.329241	780.555209	-427.555809	625.565570	763.770050	-326.474355	291.732728	604.167045	-414.544934	313.910316	607.467010	-342.014787	209.918322	617.313042	-374.551373	329.157263	489.757256	-433.539789	529.446810	732.597115	-441.782276	465.040240	675.389539	-427.480810	378.026928	657.562885	-422.936802	479.964025	654.294044	-398.560284	413.969601	455.993545	-362.286363	-64.363524	853.003323	-240.171838	21.249570	84.151169	-442.113806	21.233882	84.014140	-43.894795	
